/* XPM */
static char * new_xpm[] = {
"16 16 36 1",
" 	c None",
".	c #FF8A00",
"+	c #FFF7EE",
"@	c #FFA944",
"#	c #FFF4E8",
"$	c #FFFAF4",
"%	c #FFEEDA",
"&	c #FFE7CB",
"*	c #FFD8AB",
"=	c #FF900C",
"-	c #FFB966",
";	c #FFEDD7",
">	c #FF9518",
",	c #FFFBF6",
"'	c #FFC177",
")	c #FFF7ED",
"!	c #FFC178",
"~	c #FFE0BB",
"{	c #FFB156",
"]	c #FFF2E3",
"^	c #FFD099",
"/	c #FFFCF9",
"(	c #FFE5C7",
"_	c #FFD39F",
":	c #FFF3E4",
"<	c #FFEFDC",
"[	c #FFE8CD",
"}	c #FFDFBA",
"|	c #FF8B03",
"1	c #FFDEB7",
"2	c #FFD8AA",
"3	c #FFFDFB",
"4	c #FF9C27",
"5	c #FFFFFF",
"6	c #FFD098",
"7	c #FFBD6F",
"                ",
"                ",
"                ",
"                ",
"..........    . ",
".+@.#@$%&*=--.;>",
".,+.$'#.=)!~~{].",
".$^'$'/%(_:<][}.",
".$.+$'#..|/1234 ",
".$.'5'/%(.,675. ",
"............... ",
"                ",
"                ",
"                ",
"                ",
"                "};
