/* XPM */
static char * film_xpm[] = {
"16 16 102 2",
"  	c None",
". 	c #717171",
"+ 	c #6F6F6F",
"@ 	c #6D6D6D",
"# 	c #525252",
"$ 	c #4D4D4D",
"% 	c #494949",
"& 	c #6C6C6C",
"* 	c #696969",
"= 	c #575757",
"- 	c #484848",
"; 	c #434343",
"> 	c #656565",
", 	c #6CBAE5",
"' 	c #74BCEC",
") 	c #6EB8EB",
"! 	c #68B6EB",
"~ 	c #CDCB80",
"{ 	c #EAD780",
"] 	c #474747",
"^ 	c #424242",
"/ 	c #3D3D3D",
"( 	c #686868",
"_ 	c #616161",
": 	c #36BF7F",
"< 	c #69C5DD",
"[ 	c #70C2FF",
"} 	c #67BFFF",
"| 	c #ACCBAE",
"1 	c #F9E068",
"2 	c #414141",
"3 	c #373737",
"4 	c #646464",
"5 	c #606060",
"6 	c #5C5C5C",
"7 	c #45C44F",
"8 	c #2CBA4B",
"9 	c #60BDD8",
"0 	c #62BAFF",
"a 	c #65B9FF",
"b 	c #7DBBDB",
"c 	c #3B3B3B",
"d 	c #363636",
"e 	c #313131",
"f 	c #5CCB4F",
"g 	c #7AD757",
"h 	c #6AD142",
"i 	c #5EC770",
"j 	c #50B8B6",
"k 	c #3FAECB",
"l 	c #2C2C2C",
"m 	c #5B5B5B",
"n 	c #9EE272",
"o 	c #A4E37C",
"p 	c #A0E378",
"q 	c #95E063",
"r 	c #95E15A",
"s 	c #93E255",
"t 	c #303030",
"u 	c #2B2B2B",
"v 	c #262626",
"w 	c #565656",
"x 	c #515151",
"y 	c #2A2A2A",
"z 	c #252525",
"A 	c #202020",
"B 	c #4C4C4C",
"C 	c #6EC6F8",
"D 	c #77C8FF",
"E 	c #72C5FF",
"F 	c #6CC4FF",
"G 	c #CFD898",
"H 	c #EBE499",
"I 	c #242424",
"J 	c #1B1B1B",
"K 	c #4B4B4B",
"L 	c #464646",
"M 	c #1F1F1F",
"N 	c #1A1A1A",
"O 	c #161616",
"P 	c #454545",
"Q 	c #404040",
"R 	c #151515",
"S 	c #111111",
"T 	c #0D0D0D",
"U 	c #3A3A3A",
"V 	c #353535",
"W 	c #9DDF6E",
"X 	c #A3E077",
"Y 	c #9EE073",
"Z 	c #93DD5E",
"` 	c #93DE55",
" .	c #91DE50",
"..	c #101010",
"+.	c #0C0C0C",
"@.	c #090909",
"#.	c #343434",
"$.	c #050505",
"%.	c #2E2E2E",
"&.	c #292929",
"*.	c #080808",
"=.	c #020202",
"                                ",
"    . + @             # $ %     ",
"    + & * = = = = = = $ - ;     ",
"    & * > , ' ) ! ~ { ] ^ /     ",
"    ( > _ : < [ } | 1 2   3     ",
"    4 5 6 7 8 9 0 a b c d e     ",
"    5 6 = f g h i j k d e l     ",
"    m = # n o p q r s t u v     ",
"    w x ( = = = = = = y z A     ",
"    x B ] C D E F G H I A J     ",
"    K L 2 : < [ } | 1 M N O     ",
"    P Q c 7 8 9 0 a b N R S     ",
"    Q   d f g h i j k R   T     ",
"    U V t W X Y Z `  ...+.@.    ",
"    #.  V = = = = = = N   $.    ",
"    %.&.I             *.$.=.    "};
