/* XPM */
static char * play_grey_xpm[] = {
"16 16 2 1",
" 	c None",
".	c #D7D7D7",
".               ",
"...             ",
".....           ",
".......         ",
".........       ",
"...........     ",
".............   ",
"............... ",
"............... ",
".............   ",
"............    ",
".........       ",
"........        ",
"......          ",
"....            ",
"..              "};
